<svg width="24" height="24" viewBox="0 0 24 24" fill="none" xmlns="http://www.w3.org/2000/svg">
<path d="M21.6902 8.24966C21.6302 6.97966 21.3802 5.34966 20.0202 3.98966C18.6602 2.62966 17.0302 2.37966 15.7602 2.31966C14.2502 2.23966 9.76022 2.22966 8.26022 2.31966C6.99022 2.37966 5.36021 2.61966 4.00021 3.98966C2.64021 5.34966 2.3902 6.97966 2.3302 8.24966C2.2402 9.75966 2.2402 14.2497 2.3302 15.7497C2.3902 17.0197 2.63021 18.6497 4.00021 20.0197C5.37021 21.3797 7.00022 21.6297 8.26022 21.6897C9.02022 21.7297 10.5202 21.7497 12.0202 21.7497C13.5202 21.7497 15.0102 21.7297 15.7602 21.6897C17.0302 21.6297 18.6602 21.3897 20.0302 20.0197C21.3902 18.6597 21.6402 17.0297 21.7002 15.7597C21.7902 14.2497 21.7902 9.76965 21.7002 8.25965L21.6902 8.24966ZM20.1902 15.6697C20.1102 17.1797 19.7502 18.1597 18.9502 18.9497C18.1602 19.7397 17.1802 20.1096 15.6702 20.1796C14.2002 20.2596 9.81022 20.2596 8.32022 20.1796C6.82022 20.0996 5.84022 19.7297 5.04022 18.9397C4.25022 18.1497 3.88021 17.1697 3.81021 15.6597C3.73021 14.2197 3.73021 9.75965 3.81021 8.30965C3.89021 6.79965 4.25022 5.81966 5.04022 5.02966C5.83022 4.23966 6.82022 3.86966 8.32022 3.79966C9.06022 3.75966 10.5202 3.73966 11.9902 3.73966C13.4602 3.73966 14.9302 3.75966 15.6702 3.79966C17.1802 3.87966 18.1602 4.23965 18.9502 5.03965C19.7402 5.82965 20.1102 6.80966 20.1802 8.31966C20.2602 9.79966 20.2602 14.1897 20.1802 15.6697H20.1902ZM12.0002 7.24966C9.38021 7.24966 7.25021 9.37966 7.25021 11.9997C7.25021 14.6197 9.38021 16.7497 12.0002 16.7497C14.6202 16.7497 16.7502 14.6197 16.7502 11.9997C16.7502 9.37966 14.6202 7.24966 12.0002 7.24966ZM12.0002 15.2497C10.2102 15.2497 8.75021 13.7897 8.75021 11.9997C8.75021 10.2097 10.2102 8.74966 12.0002 8.74966C13.7902 8.74966 15.2502 10.2097 15.2502 11.9997C15.2502 13.7897 13.7902 15.2497 12.0002 15.2497ZM18.5202 6.49966C18.5202 7.04966 18.0702 7.49966 17.5202 7.49966C16.9702 7.49966 16.5202 7.04966 16.5202 6.49966C16.5202 5.94966 16.9602 5.49966 17.5202 5.49966C18.0702 5.49966 18.5202 5.94966 18.5202 6.49966Z" fill="white"/>
</svg>
