<svg width="24" height="24" viewBox="0 0 24 24" fill="none" xmlns="http://www.w3.org/2000/svg">
<path d="M21.6999 5.50985C21.6699 5.36985 21.5999 4.93986 21.1999 4.60986C20.7699 4.25986 20.2299 4.23986 20.0699 4.24986C19.3299 4.25986 18.4899 4.53986 13.6099 6.57986C12.0099 7.24986 8.74993 8.65986 3.93993 10.7699C3.19993 11.0699 2.34993 11.5099 2.24993 12.2899C2.10993 13.4199 3.25993 13.7799 4.18993 14.0799L4.54992 14.1899C5.26992 14.4299 6.58993 14.8199 7.33993 14.8399C8.04993 14.8599 8.77992 14.5899 9.57992 14.0399C10.7799 13.2299 11.7699 12.5599 12.5999 11.9999C12.4699 12.1199 12.3499 12.2399 12.2499 12.3299C11.8299 12.7299 11.5299 13.0099 11.4699 13.0699C11.3499 13.1999 11.2199 13.3199 11.0999 13.4399C10.5499 13.9699 9.98993 14.5199 10.0599 15.3099C10.1299 16.0599 10.7699 16.5599 11.2399 16.8699C11.9199 17.3199 12.4699 17.6999 13.0099 18.0699C13.5899 18.4699 14.1799 18.8699 14.9399 19.3699C15.1299 19.4899 15.2999 19.6199 15.4799 19.7399C16.1699 20.2399 16.8899 20.7499 17.8199 20.7499C17.8999 20.7499 17.9699 20.7499 18.0499 20.7399C18.6899 20.6799 19.5199 20.2299 19.8499 18.4199C20.3799 15.5699 21.4799 9.10986 21.7399 6.37986C21.7699 6.06986 21.7399 5.69986 21.7099 5.51986L21.6999 5.50985ZM20.2399 6.22985C19.9899 8.88985 18.8799 15.4099 18.3699 18.1499C18.2099 19.0399 17.9499 19.2399 17.9099 19.2499C17.4599 19.2799 17.0199 18.9999 16.3499 18.5199C16.1599 18.3899 15.9699 18.2499 15.7699 18.1099C15.0199 17.6199 14.4399 17.2199 13.8699 16.8199C13.3199 16.4399 12.7699 16.0699 12.0799 15.6099C11.6599 15.3299 11.5799 15.1799 11.5599 15.1799C11.5999 15.0399 11.9299 14.7199 12.1499 14.5099C12.2799 14.3799 12.4199 14.2499 12.5599 14.0999C12.6199 14.0299 12.8999 13.7799 13.2799 13.4199C17.1999 9.75986 17.2399 9.58985 17.3099 9.25985C17.3699 8.96985 17.3299 8.52986 16.9999 8.24986C16.6199 7.89986 16.1399 7.99985 15.9899 8.03985C15.7699 8.08985 15.6399 8.11986 8.73992 12.7999C8.21992 13.1599 7.78993 13.3599 7.37993 13.3299C6.98993 13.3299 6.07992 13.0999 5.01992 12.7499L4.64992 12.6299C4.42992 12.5599 4.16992 12.4799 3.95992 12.3999C4.07992 12.3299 4.25994 12.2499 4.50994 12.1499C4.50994 12.1499 4.51993 12.1499 4.52993 12.1499C9.33993 10.0499 12.5799 8.63986 14.1799 7.96986C18.3599 6.21986 19.5799 5.76985 20.0899 5.75985C20.0899 5.75985 20.1999 5.76986 20.2099 5.76986C20.2299 5.87986 20.2399 6.09986 20.2299 6.23986L20.2399 6.22985Z" fill="white"/>
</svg>
