<svg width="24" height="24" viewBox="0 0 24 24" fill="none" xmlns="http://www.w3.org/2000/svg">
<path d="M20.5298 6.77977C20.3898 6.63977 20.1998 6.55977 19.9998 6.55977C19.2298 6.55977 18.3297 6.31977 17.7997 5.96977C16.9797 5.43977 16.4097 4.59977 16.2397 3.64977C16.1997 3.43976 16.1798 3.21977 16.1898 3.00977C16.1898 2.80977 16.1097 2.61977 15.9697 2.47977C15.8297 2.33977 15.6398 2.25977 15.4398 2.25977H12.3497C11.9397 2.25977 11.5997 2.59977 11.5997 3.00977V15.2998C11.5997 15.4898 11.5698 15.6798 11.5098 15.8598C11.3598 16.3398 11.0298 16.7298 10.5898 16.9598C10.1498 17.1898 9.63973 17.2398 9.15973 17.0898C8.67973 16.9398 8.28975 16.6098 8.05975 16.1698C7.82975 15.7298 7.77976 15.2198 7.93976 14.7398C8.08976 14.2598 8.41974 13.8698 8.85974 13.6398C9.29974 13.4098 9.80973 13.3598 10.2897 13.5098C10.5197 13.5798 10.7698 13.5398 10.9598 13.3998C11.1498 13.2598 11.2698 13.0298 11.2698 12.7998V9.63977C11.2698 9.26977 10.9898 8.94977 10.6198 8.89977C10.3298 8.85977 10.0297 8.83977 9.72974 8.83977C7.99974 8.83977 6.37973 9.50977 5.15973 10.7298C3.93973 11.9498 3.26977 13.5698 3.25977 15.2998C3.25977 18.8698 6.15973 21.7698 9.71973 21.7698C13.2797 21.7698 16.1898 18.8698 16.1898 15.3098V10.3198C17.3398 10.8498 18.6797 11.1498 19.9897 11.1498C20.4097 11.1498 20.7598 10.8198 20.7598 10.3998V7.32977C20.7598 7.12977 20.6797 6.93977 20.5397 6.79977L20.5298 6.77977ZM19.2498 9.59978C18.0098 9.46978 16.7598 9.03976 15.8698 8.39977C15.6398 8.23977 15.3398 8.20977 15.0898 8.33977C14.8398 8.46977 14.6797 8.72977 14.6797 9.00977V15.2898C14.6797 18.0298 12.4498 20.2498 9.70978 20.2498C6.96978 20.2498 4.74976 18.0198 4.74976 15.2798C4.74976 13.9498 5.26978 12.7098 6.20978 11.7698C7.14978 10.8298 8.38973 10.3198 9.71973 10.3198C9.71973 10.3198 9.73976 10.3198 9.74976 10.3198V11.9098C9.21976 11.8898 8.64978 12.0298 8.14978 12.2898C7.34978 12.7098 6.75975 13.4098 6.48975 14.2698C6.21975 15.1298 6.29973 16.0398 6.71973 16.8398C7.13973 17.6398 7.83977 18.2298 8.69977 18.4998C9.55977 18.7698 10.4698 18.6898 11.2698 18.2698C12.0698 17.8498 12.6597 17.1498 12.9297 16.2898C13.0297 15.9598 13.0898 15.6198 13.0898 15.2798V3.73978H14.7397C14.7397 3.79978 14.7598 3.84977 14.7698 3.90977C15.0198 5.26977 15.8397 6.46977 16.9897 7.21977C17.5797 7.60977 18.4198 7.88977 19.2598 7.99977V9.57977L19.2498 9.59978Z" fill="white"/>
</svg>
