<svg width="24" height="24" viewBox="0 0 24 24" fill="none" xmlns="http://www.w3.org/2000/svg">
<path d="M22.5802 5.42999C22.4102 5.21999 22.1502 5.13 21.9002 5.16C22.0002 4.96 22.0802 4.74999 22.1502 4.53999C22.2502 4.23999 22.1502 3.92 21.9102 3.72C21.6702 3.53 21.3302 3.5 21.0602 3.66C20.4502 4.02 19.7702 4.29001 19.0702 4.46001C18.1902 3.69001 17.0302 3.25 15.8402 3.25C13.1702 3.25 10.9902 5.39999 10.9902 8.03999C10.9902 8.06999 10.9902 8.1 10.9902 8.13C8.24022 7.77 5.72022 6.37999 3.97022 4.25999C3.81022 4.06999 3.57022 3.97001 3.33022 3.99001C3.09022 4.01001 2.87022 4.15 2.74022 4.36C2.30022 5.1 2.08022 5.92 2.08022 6.78C2.08022 7.54 2.26021 8.26999 2.59021 8.92999C2.53021 8.94999 2.47021 8.97999 2.42021 9.00999C2.19021 9.13999 2.05022 9.41999 2.05022 9.67999C2.05022 11.07 2.66022 12.35 3.66022 13.24C3.50022 13.44 3.44022 13.71 3.52022 13.95C3.94022 15.25 4.90022 16.28 6.11022 16.83C4.86022 17.39 3.44022 17.61 2.07022 17.45C1.72022 17.41 1.39022 17.62 1.28022 17.95C1.16022 18.28 1.29021 18.65 1.59021 18.83C3.58021 20.09 5.90021 20.76 8.29021 20.76C16.0602 20.76 20.7002 14.54 20.7002 8.52V8.36C21.4302 7.79 22.0702 7.11 22.6102 6.34C22.8002 6.07 22.7902 5.7 22.5802 5.44V5.42999ZM19.5002 7.38C19.2902 7.53 19.1702 7.77999 19.1902 8.03999C19.2002 8.19999 19.2002 8.34999 19.2002 8.50999C19.2002 13.79 15.1202 19.25 8.29021 19.25C7.17021 19.25 6.07022 19.08 5.02022 18.76C6.29022 18.47 7.48022 17.91 8.53022 17.1C8.78022 16.91 8.88022 16.57 8.78022 16.27C8.68022 15.97 8.40022 15.76 8.08022 15.75C7.05022 15.73 6.10022 15.25 5.50022 14.49C5.76022 14.46 6.02022 14.42 6.27022 14.35C6.61022 14.26 6.84022 13.95 6.83022 13.6C6.83022 13.25 6.57021 12.95 6.23021 12.88C5.06021 12.65 4.14022 11.83 3.75022 10.75C4.04022 10.81 4.33021 10.85 4.62021 10.86C5.00021 10.88 5.26022 10.66 5.36022 10.34C5.46022 10.02 5.34021 9.67 5.06021 9.48C4.13021 8.87 3.57022 7.85001 3.57022 6.74001C3.57022 6.52001 3.59022 6.3 3.63022 6.09C5.79022 8.22 8.70021 9.51 11.7902 9.67C12.0202 9.67 12.2502 9.59 12.4002 9.41C12.5502 9.23 12.6102 9 12.5602 8.77C12.5002 8.5 12.4802 8.24 12.4802 8C12.4802 6.19 13.9802 4.71001 15.8302 4.71001C16.7702 4.71001 17.6402 5.08 18.2802 5.75C18.4602 5.93 18.7102 6.02 18.9602 5.97C19.0102 5.97 19.0502 5.95 19.1002 5.94C18.8902 6.14 18.8202 6.44 18.9102 6.72C19.0102 7.03 19.3002 7.24001 19.6202 7.24001C19.6202 7.24001 19.5302 7.31 19.4802 7.34L19.5002 7.38Z" fill="white"/>
</svg>
