<svg width="24" height="24" viewBox="0 0 24 24" fill="none" xmlns="http://www.w3.org/2000/svg">
<path d="M22.31 6.99977C22.01 5.87977 21.13 4.99977 20.01 4.69977C18.4 4.26977 12.65 4.25977 12 4.25977C11.35 4.25977 5.59999 4.26977 3.98999 4.69977C2.86999 4.99977 1.99 5.87977 1.69 6.99977C1.25 8.63977 1.25 11.8798 1.25 12.0198C1.25 12.1598 1.25 15.3998 1.69 17.0398C1.98 18.1398 2.86999 19.0098 3.98999 19.3098C5.59999 19.7398 11.35 19.7498 12 19.7498C12.65 19.7498 18.4 19.7398 20.01 19.3098C21.13 19.0098 22.02 18.1398 22.31 17.0398C22.75 15.3998 22.75 12.1598 22.75 12.0198C22.75 11.8798 22.75 8.63977 22.31 6.99977ZM20.86 16.6498C20.7 17.2398 20.24 17.6998 19.62 17.8598C18.42 18.1798 13.71 18.2498 12 18.2498C10.29 18.2498 5.58 18.1798 4.38 17.8598C3.76 17.6898 3.30001 17.2398 3.14001 16.6498C2.75001 15.1998 2.75 12.0498 2.75 12.0198C2.75 11.9898 2.75001 8.83977 3.14001 7.38977C3.30001 6.78977 3.78 6.30977 4.38 6.14977C5.58 5.82977 10.29 5.75977 12 5.75977C13.71 5.75977 18.42 5.82977 19.62 6.14977C20.22 6.30977 20.7 6.78977 20.86 7.38977C21.25 8.83977 21.25 11.9898 21.25 12.0198C21.25 12.0498 21.25 15.1998 20.86 16.6498ZM10 8.99977L15 11.9998L10 14.9998V8.99977Z" fill="white"/>
</svg>
